<svg xmlns="http://www.w3.org/2000/svg" xmlns:xlink="http://www.w3.org/1999/xlink" version="1.1" width="1000" height="1000" viewBox="0 0 1000 1000" xml:space="preserve">
<desc>Created with Fabric.js 3.5.0</desc>
<defs>
</defs>
<rect x="0" y="0" width="100%" height="100%" fill="#ffffff"/>
<g transform="matrix(6.2271 0 0 5.6115 499.9936 499.9953)" id="374709">
<g style="" vector-effect="non-scaling-stroke">
		<g transform="matrix(0.1333 0 0 -0.1333 21.3728 -36.7127)">
<path style="stroke: none; stroke-width: 1; stroke-dasharray: none; stroke-linecap: butt; stroke-dashoffset: 0; stroke-linejoin: miter; stroke-miterlimit: 4; is-custom-font: none; font-file-url: none; fill: rgb(0,0,0); fill-rule: nonzero; opacity: 1;" transform=" translate(-1660.3052, -1025.3269)" d="M 1639 1084 c -35 -43 -3 -156 35 -125 c 23 19 30 75 14 107 c -16 34 -31 40 -49 18 z" stroke-linecap="round"/>
</g>
		<g transform="matrix(0.1333 0 0 -0.1333 -104.001 -7.3428)">
<path style="stroke: none; stroke-width: 1; stroke-dasharray: none; stroke-linecap: butt; stroke-dashoffset: 0; stroke-linejoin: miter; stroke-miterlimit: 4; is-custom-font: none; font-file-url: none; fill: rgb(0,0,0); fill-rule: nonzero; opacity: 1;" transform=" translate(-720, -805)" d="M 690 805 l 0 -285 l 30 0 l 30 0 l 0 285 l 0 285 l -30 0 l -30 0 l 0 -285 z" stroke-linecap="round"/>
</g>
		<g transform="matrix(0.1333 0 0 -0.1333 77.9951 -7.3428)">
<path style="stroke: none; stroke-width: 1; stroke-dasharray: none; stroke-linecap: butt; stroke-dashoffset: 0; stroke-linejoin: miter; stroke-miterlimit: 4; is-custom-font: none; font-file-url: none; fill: rgb(0,0,0); fill-rule: nonzero; opacity: 1;" transform=" translate(-2085, -805)" d="M 1997 812 c -31 -153 -57 -281 -57 -285 c 0 -4 15 -7 34 -7 c 33 0 34 1 45 60 l 12 60 l 54 0 c 59 0 58 1 70 -77 c 6 -41 8 -43 41 -43 c 21 0 34 5 34 13 c 0 6 -25 131 -55 277 c -30 146 -55 268 -55 273 c 0 4 -15 7 -33 7 l -33 0 l -57 -278 z m 116 -29 c 6 -32 6 -33 -29 -33 c -19 0 -33 3 -31 8 c 3 4 10 41 18 82 l 13 75 l 11 -50 c 6 -27 15 -65 18 -82 z" stroke-linecap="round"/>
</g>
		<g transform="matrix(0.1333 0 0 -0.1333 103.999 -7.3428)">
<path style="stroke: none; stroke-width: 1; stroke-dasharray: none; stroke-linecap: butt; stroke-dashoffset: 0; stroke-linejoin: miter; stroke-miterlimit: 4; is-custom-font: none; font-file-url: none; fill: rgb(0,0,0); fill-rule: nonzero; opacity: 1;" transform=" translate(-2280, -805)" d="M 2250 805 l 0 -285 l 30 0 l 30 0 l 0 285 l 0 285 l -30 0 l -30 0 l 0 -285 z" stroke-linecap="round"/>
</g>
		<g transform="matrix(0.1333 0 0 -0.1333 -72.6719 5.9939)">
<path style="stroke: none; stroke-width: 1; stroke-dasharray: none; stroke-linecap: butt; stroke-dashoffset: 0; stroke-linejoin: miter; stroke-miterlimit: 4; is-custom-font: none; font-file-url: none; fill: rgb(0,0,0); fill-rule: nonzero; opacity: 1;" transform=" translate(-955, -705)" d="M 880 870 c -16 -16 -20 -17 -20 -5 c 0 10 -10 15 -30 15 l -30 0 l 0 -180 l 0 -180 l 30 0 l 30 0 l 0 119 c 0 127 4 151 26 151 c 25 0 34 -39 34 -154 l 0 -116 l 30 0 l 30 0 l 0 109 c 0 115 10 161 34 161 c 22 0 26 -23 26 -151 l 0 -119 l 35 0 l 35 0 l -1 128 c -1 155 -13 211 -52 232 c -28 15 -29 14 -58 -20 c -16 -19 -29 -29 -29 -23 c 0 16 -40 53 -57 53 c -7 0 -22 -9 -33 -20 z" stroke-linecap="round"/>
</g>
		<g transform="matrix(0.1333 0 0 -0.1333 -35.2297 6.6761)">
<path style="stroke: none; stroke-width: 1; stroke-dasharray: none; stroke-linecap: butt; stroke-dashoffset: 0; stroke-linejoin: miter; stroke-miterlimit: 4; is-custom-font: none; font-file-url: none; fill: rgb(0,0,0); fill-rule: nonzero; opacity: 1;" transform=" translate(-1235.8031, -699.8821)" d="M 1180 862 c -63 -63 -65 -249 -3 -322 c 29 -36 55 -38 83 -8 c 17 18 20 19 20 5 c 0 -12 9 -17 30 -17 l 30 0 l 0 180 l 0 180 l -30 0 c -20 0 -30 -5 -30 -15 c 0 -12 -4 -11 -20 5 c -27 27 -46 25 -80 -8 z m 90 -101 c 5 -11 10 -38 10 -61 c 0 -51 -15 -80 -40 -80 c -25 0 -40 29 -40 80 c 0 23 5 50 10 61 c 14 25 46 25 60 0 z" stroke-linecap="round"/>
</g>
		<g transform="matrix(0.1333 0 0 -0.1333 -2.5531 18.724)">
<path style="stroke: none; stroke-width: 1; stroke-dasharray: none; stroke-linecap: butt; stroke-dashoffset: 0; stroke-linejoin: miter; stroke-miterlimit: 4; is-custom-font: none; font-file-url: none; fill: rgb(0,0,0); fill-rule: nonzero; opacity: 1;" transform=" translate(-1480.8775, -609.5)" d="M 1432 874 c -34 -23 -54 -81 -55 -159 c -2 -91 8 -138 39 -175 c 29 -33 64 -39 88 -14 c 15 14 16 13 16 -16 c 0 -17 -5 -40 -10 -51 c -14 -26 -56 -25 -71 2 l -11 22 l -26 -26 c -23 -24 -24 -28 -12 -57 c 15 -36 55 -70 82 -70 c 37 0 74 29 94 71 c 17 39 19 67 19 259 l 0 215 l -32 3 c -20 2 -33 -1 -33 -8 c 0 -7 -8 -5 -22 4 c -28 20 -38 20 -66 0 z m 78 -113 c 5 -11 10 -38 10 -61 c 0 -51 -15 -80 -41 -80 c -35 0 -52 82 -27 135 c 13 30 43 33 58 6 z" stroke-linecap="round"/>
</g>
		<g transform="matrix(0.1333 0 0 -0.1333 44.6634 6.0554)">
<path style="stroke: none; stroke-width: 1; stroke-dasharray: none; stroke-linecap: butt; stroke-dashoffset: 0; stroke-linejoin: miter; stroke-miterlimit: 4; is-custom-font: none; font-file-url: none; fill: rgb(0,0,0); fill-rule: nonzero; opacity: 1;" transform=" translate(-1835, -704.5384)" d="M 1820 870 c -16 -16 -20 -17 -20 -5 c 0 10 -10 15 -30 15 l -30 0 l 0 -180 l 0 -180 l 30 0 l 30 0 l 0 116 c 0 117 9 154 36 154 c 24 0 34 -45 34 -161 l 0 -109 l 30 0 l 30 0 l 0 133 c 0 147 -10 199 -43 222 c -29 20 -43 19 -67 -5 z" stroke-linecap="round"/>
</g>
		<g transform="matrix(0.1333 0 0 -0.1333 21.3323 6.6607)">
<path style="stroke: none; stroke-width: 1; stroke-dasharray: none; stroke-linecap: butt; stroke-dashoffset: 0; stroke-linejoin: miter; stroke-miterlimit: 4; is-custom-font: none; font-file-url: none; fill: rgb(0,0,0); fill-rule: nonzero; opacity: 1;" transform=" translate(-1660, -700)" d="M 1630 700 l 0 -180 l 30 0 l 30 0 l 0 180 l 0 180 l -30 0 l -30 0 l 0 -180 z" stroke-linecap="round"/>
</g>
</g>
</g>
</svg>